<?xml version="1.0" encoding="utf-8"?>
<!-- Generator: Adobe Illustrator 23.0.2, SVG Export Plug-In . SVG Version: 6.00 Build 0)  -->
<svg version="1.1" id="Capa_1" xmlns="http://www.w3.org/2000/svg" xmlns:xlink="http://www.w3.org/1999/xlink" x="0px" y="0px"
	 viewBox="0 0 32 22.64" style="enable-background:new 0 0 32 22.64;" xml:space="preserve">
<style type="text/css">
	.st0{fill:#B43331;}
	.st1{fill:#C75041;}
	.st2{fill:#353434;}
	.st3{font-family:'TimesNewRomanPSMT';}
	.st4{font-size:8.5849px;}
	.st5{font-size:6.8603px;}
	.st6{font-size:2.1667px;}
</style>
<g>
	<g>
		<polygon class="st0" points="16.11,10.16 16.11,8.69 11.1,6.17 10.84,1.2 15.33,3.44 15.48,7.04 12.05,5.33 11.96,2.74 
			14.71,4.08 14.79,5.9 12.94,5.03 12.92,3.87 14.07,4.43 14.11,5.01 13.71,4.9 14.26,5.24 14.23,4.36 12.68,3.58 12.77,5.16 
			14.95,6.26 14.94,3.9 11.52,2.16 11.66,5.62 16.03,7.78 15.82,3.03 10.03,0 10.27,6.47 		"/>
		<polygon class="st1" points="16.11,10.16 16.11,8.69 21.11,6.17 21.38,1.2 16.88,3.44 16.74,7.04 20.17,5.33 20.25,2.74 
			17.5,4.08 17.43,5.9 19.27,5.03 19.29,3.87 18.15,4.43 18.1,5.01 18.51,4.9 17.96,5.24 17.98,4.36 19.53,3.58 19.45,5.16 
			17.26,6.26 17.27,3.9 20.69,2.16 20.55,5.62 16.18,7.78 16.39,3.03 22.19,0 21.95,6.47 		"/>
	</g>
	<g>
		<text transform="matrix(1.0327 0 0 1 0 16.9336)" class="st2 st3 st4">F</text>
		<text transform="matrix(1.0327 0 0 1 4.9307 16.9336)" class="st2 st3 st5">ACITEC</text>
	</g>
	<g>
		<text transform="matrix(1 0 0 1 1.126 19.6543)" class="st2 st3 st6">Facultad de Ciencias y Tecnología</text>
		<text transform="matrix(1 0 0 1 0.3735 21.9756)" class="st2 st3 st6">Universidad Nacional de Canindeyú</text>
	</g>
</g>
</svg>
